<!-- Generator: Adobe Illustrator 25.2.0, SVG Export Plug-In  -->
<svg version="1.1" xmlns="http://www.w3.org/2000/svg" xmlns:xlink="http://www.w3.org/1999/xlink" x="0px" y="0px" width="331.2px"
	 height="318.7px" viewBox="0 0 331.2 318.7"
	 xml:space="preserve">
<defs>
</defs>
<path style="fill:#F07E18;" d="M251,286.5L251,286.5c-4.7,3.6-10.4,5.2-15.9,7c-22.6,7.5-45.7,9.5-69.1,5.2c-39.1-7.3-70-27.3-92.8-59.9
	c-1.7-2.4-1-4,0.8-5.8c6.9-6.9,13.7-13.8,20.7-20.6c1.6-1.5,2.2-3.2,2.2-5.3c0-4.5,0-9,0-13.5c0-0.8-0.4-1.9,0.7-2.3
	c1-0.4,1.5,0.6,2.1,1.2c7.7,7.7,15.5,15.3,23,23.1c2.4,2.5,4.9,3.7,8.5,3.6c8.9-0.3,17.7-0.1,26.6-0.1c1.1,0,2.5,0.5,3-0.8
	c0.5-1.2-0.7-2-1.5-2.8c-8-8.1-16-16.1-24.1-24.1c-1.3-1.3-3.3-2.8,0.1-4c11.7-4.1,17.7-12.8,19.5-24.8c1.4-9.5,1.2-18.9-2.6-28
	c-4.5-10.8-13.2-15.8-24.3-17.5c-6.3-0.9-12.7-0.7-19.1-0.7c-12.4,0-24.7,0.1-37.1,0c-3.3,0-4.4,1.1-4.3,4.3
	c0.1,32.1,0,64.2,0.1,96.3c0,3.6,0.8,7.2-0.1,11.2c-1.6-1-2.1-2.5-2.8-3.9C33.1,162.9,50,88.3,105.1,46.8
	c31.6-23.8,67.3-32.4,106.3-27.1c13.7,1.8,26.8,6,39.2,12c1.6,0.8,3,1.8,4.9,1.5l0,0c-2.3-3.8-6.3-5.6-9.8-7.8
	C215.4,6.2,182.1-2.5,146.3,0.6C104.2,4.2,68.8,22,40.4,53.4c-16.1,17.8-27.3,38.3-34,61.3c-9.4,32.6-8.4,65,2.5,97.1
	c7.5,22.1,19.7,41.3,35.6,58.2c7.5,8,16.2,14.7,25.1,21.2c8.1,5.9,16.9,10.4,25.8,14.6c6.6,3.1,13.8,5.1,20.9,7
	c30.7,8.4,61.3,7.7,91.8-1.7c16.3-5,31-13.1,44.9-22.7c1-0.7,2.2-1.2,2.5-2.6l0,0C253.9,285.1,252.5,286.4,251,286.5z M96.8,148.6
	c0-2,0.9-3,2.9-2.9c3.4,0,6.7,0,10.1,0v0c3.1,0,6.2-0.2,9.3,0c4.6,0.3,6.8,2.7,6.9,7.1c0.1,4.5-2,7.1-6.6,7.3
	c-6.5,0.3-12.9,0.1-19.4,0.2c-2.1,0-3.3-0.9-3.2-3.1C96.9,154.3,96.9,151.4,96.8,148.6z"/>
<g>
	<path style="fill:#BBBBBB;" d="M328.5,131.9c-1.8-9.9-4.8-19.3-8.7-28.4c-3.7-8.9-8.8-17.2-14.5-25.2C269,27.5,203.7,7,144.7,27.6
		c-12,4.2-23,10.3-33.6,17.1c-0.6,0.4-1,1-1.9,2c3.5,0,6-1.4,8.5-2.4c18.8-7.2,38.3-10.8,58.4-8.4c47,5.7,81.3,30,101.5,72.9
		c21.6,45.9,10.4,103.8-26.2,138.9c-29,27.8-63.7,39.2-103.5,34.7c-15-1.7-29.1-6.7-42.5-13.7c-0.5-0.3-1.1-0.5-2-0.4
		c2.3,1.7,4.5,3.4,6.8,5c2.6,1.8,5.1,3.6,7.8,5.2c2.5,1.6,5.1,3.1,7.8,4.5c40.4,20.5,81.5,21.8,123.2,4c0.7-0.3,1.4-0.5,2.1-0.7
		c0,0-0.1,0.1-0.1,0.1c9.2-4.9,18.3-10.1,26.5-16.6c27.6-21.9,44.8-50.2,51.6-84.7c1.7-8.8,2.2-17.7,2.2-26.6
		C331.1,149.6,330.1,140.8,328.5,131.9z"/>
	<path style="fill:#BBBBBB;" d="M173,219.1c7.5-0.1,15-0.2,22.5,0c3,0.1,3.9-0.9,3.8-3.8c-0.1-13.7,0-27.5,0-41.2c0-1.3,0-2.7,0-4
		c0.4-0.1,0.8-0.3,1.1-0.4c4.1,5.6,8.1,11.2,12.2,16.9c6.9,9.6,13.8,19.3,20.6,29c1.7,2.5,3.5,3.7,6.7,3.6c7.4-0.3,14.7-0.2,22.1,0
		c2.5,0,3.2-0.8,3.2-3.2c-0.1-32.2-0.1-64.4,0-96.7c0-2.3-0.9-3-3.1-3c-7.6,0.1-15.2,0.2-22.8,0c-3.2-0.1-3.7,1.4-3.7,4
		c0.1,13.6,0,27.2,0,40.8c0,1.5,0.3,3-0.6,5.1c-2.8-3.8-5.4-7.3-7.9-10.9c-8.6-12.1-17.3-24.1-25.9-36.3c-1.5-2.1-3.1-2.9-5.6-2.8
		c-7.5,0.1-15,0.2-22.5,0c-2.6,0-3.5,0.9-3.5,3.5c0.1,32.1,0.1,64.2,0,96.3C169.6,218.5,170.7,219.1,173,219.1z"/>
</g>
</svg>
