<svg xmlns="http://www.w3.org/2000/svg" xmlns:xlink="http://www.w3.org/1999/xlink" x="0px" y="0px" width="349.3px" height="160.1px" viewBox="0 0 349.3 160.1" xml:space="preserve" class="w-full" style="overflow: visible;"><g>
	<path d="M19.2,67.4c-5.7,0-9.6,3.5-12.7,8.8V44.6c-1.1,0.1-2,0.3-2.9,0.3c-1,0-2-0.2-2.9-0.3v63.7h1.4 c1.7-1.7,3.2-3.6,5-5.1c1.3,2.3,4.4,6.1,10.5,6.1C28,109.3,34,98.5,34,87.1C34,77.7,29.5,67.4,19.2,67.4z M16.6,106.6 c-6.4,0-10.3-6.4-10.3-15.6c0-10.1,2.7-20.1,11.1-20c7.2,0.1,10.2,7.3,10.2,16.5C27.5,95.4,24.9,106.6,16.6,106.6z" style="fill: rgb(223, 20, 110);"></path><path d="M126.2,77.1c0-4.6,3-7.1,6.7-7.1c2.7,0,5.3,2.8,6.3,5.6h0.7c0.4-2.1,1-4.1,1.8-6.1c-1.3-0.9-4.5-2.2-8.3-2.2 c-6.6,0-12,4.4-12,12.6c0,14.9,17.4,7.4,17.4,18.9c0,4.5-3.6,7.8-7.2,7.8c-3.4,0-6.7-3-8.4-6.3h-0.6c-0.3,2.1-1,4.2-1.6,6.2 c2.6,1.8,6.2,2.7,9.2,2.7c6.5,0,13.6-4.4,13.6-13.5C143.6,82.2,126.2,88,126.2,77.1z" style="fill: rgb(34, 31, 31);"></path><path d="M171.3,67.4c-5.2,0-9.3,3.1-11.9,8.3v-31c-1.1,0.1-2,0.3-2.9,0.3c-1,0-2-0.2-2.9-0.3v64c1-0.1,1.9-0.3,2.9-0.3 c1,0,1.9,0.2,2.9,0.3V85.4c0-8.8,3-13.6,9.6-13.6c6.3,0,8.2,4.7,8.2,14.1v22.7c1-0.1,1.9-0.3,3-0.3c1,0,1.8,0.2,2.9,0.3V84 C183.2,73.3,179.8,67.4,171.3,67.4z" style="fill: rgb(34, 31, 31);"></path><polygon points="153.6,44.6 153.6,44.6 153.6,44.6  " style="fill: rgb(34, 31, 31);"></polygon><path d="M54.9,73.1l6.3-8l16.7-20.4c-1,0.1-2,0.3-2.9,0.3c-1.1,0-2-0.2-3-0.3L53.9,68.4c-1,1.3-2.6,3.3-3.9,4.6 c-0.7,0.7-1.8,1.1-1.8,0.6V44.6c-1.2,0.1-2.2,0.3-3.2,0.3c-1.1,0-2.2-0.2-3.2-0.3v64c1-0.1,2.1-0.3,3.2-0.3c1,0,2.1,0.2,3.2,0.3V76 c0-0.4,0.9-0.1,1.2,0.3l16.1,23.8c1.8,2.7,3.5,5.5,5.1,8.5c1.3-0.1,2.7-0.3,4.1-0.3c1.3,0,2.6,0.2,4.1,0.3v-0.5l-5.9-9.3 C66.9,90.1,60.8,81.7,54.9,73.1z" style="fill: rgb(34, 31, 31);"></path><path d="M109.9,101.5V81.7c0-9.6-4.2-14.3-11.9-14.3c-4.3,0-8.3,1.9-11.9,4.7v4.8h0.8c0.5-1.9,3.4-5.9,8.8-5.9 c5.5,0,8.6,3.7,8.6,10c0,4.1-2,4.6-7.8,5.7c-6.9,1.3-13.6,2.6-13.6,12.3c0,6.3,4.6,10.4,9.8,10.4c4.4,0,7.8-1.8,10.9-5.4l0.7-0.8 c0.6,5,3.8,5.7,7.6,4.9c0.8-0.2,1.7-0.6,2.2-0.9v-1.9C109.7,106.5,109.9,104.8,109.9,101.5z M104,99.8c0,0.6-1.5,2-2,2.6 c-1.4,1.6-3.9,3.2-5.9,3.2c-4.5,0-7.2-2.7-7.2-8c0-7.8,7.5-8.6,12.5-9.7l2.6-0.6h0V99.8z" style="fill: rgb(34, 31, 31);"></path><path d="M340.5,5.1H211.6c-3.9,0-7,3.2-7,7v128.3c0,3.9,3.2,7,7,7h128.9c3.9,0,7-3.2,7-7V12.1 C347.5,8.3,344.3,5.1,340.5,5.1z M270.9,31l-11.6,41.9L222,25.2L270.9,31z M273.2,31.3l35.6,49.5l-47.3-7.4L273.2,31.3z  M220.5,33.6h5.4l15.3,19.5L220.5,33.6z M244.6,127.4l14.7-51.7l7.5,33.7L244.6,127.4z M261.7,75.8L307,83l-39.2,19.5L261.7,75.8z  M307.8,88.4l-34.4,13.8l35.9-18.2L307.8,88.4z M297,60.9l23-4.1l-8.8,23.8L297,60.9z M318.4,66.8l3.6-9.8l9.4,9.6L318.4,66.8z" style="fill: rgb(223, 20, 110);"></path><polygon points="261.7,75.8 267.8,102.6 307,83  " style="fill: rgb(255, 255, 255);"></polygon><polygon points="307.8,88.4 309.2,84.1 273.3,102.3  " style="fill: rgb(255, 255, 255);"></polygon><polygon points="318.4,66.8 331.5,66.6 322.1,57  " style="fill: rgb(255, 255, 255);"></polygon><polygon points="244.6,127.4 266.9,109.3 259.4,75.6  " style="fill: rgb(255, 255, 255);"></polygon><polygon points="308.8,80.8 273.2,31.3 261.6,73.4  " style="fill: rgb(255, 255, 255);"></polygon><polygon points="220.5,33.6 241.2,53.1 226,33.6  " style="fill: rgb(255, 255, 255);"></polygon><polygon points="270.9,31 222,25.2 259.4,72.9  " style="fill: rgb(255, 255, 255);"></polygon><polygon points="297,60.9 311.2,80.6 320,56.8  " style="fill: rgb(255, 255, 255);"></polygon></g></svg>