<!-- Generator: Adobe Illustrator 25.2.0, SVG Export Plug-In  -->
<svg version="1.1" xmlns="http://www.w3.org/2000/svg" xmlns:xlink="http://www.w3.org/1999/xlink" x="0px" y="0px" width="179.8px"
	 height="112.5px" viewBox="0 0 179.8 112.5" style="overflow:visible;enable-background:new 0 0 179.8 112.5;"
	 xml:space="preserve">
<defs>
</defs>
<g>
	<g id="Page-1_5_">
		<g id="Visa_1_">
			<rect id="Rectangle-20_1_" x="0.3" y="4.8" style="fill-rule:evenodd;clip-rule:evenodd;fill:#F6F6F6;" width="84.5" height="42.2"/>
			<path id="Rectangle-1_7_" style="fill-rule:evenodd;clip-rule:evenodd;fill:#265697;" d="M78.4,0C74.2,0,29.5,0,4.5,0C2.4,0,0.3,2.1,0.3,4.2v6.3h84.5c0,0,0,9.8,0-4.2
				C84.7,2.1,82.6,0,78.4,0z"/>
			<path id="Rectangle-1_6_" style="fill-rule:evenodd;clip-rule:evenodd;fill:#D97B16;" d="M0.3,42.2c0,0,0,0,0,4.2c0,4.2,2.1,6.3,6.3,6.3c23.6,0,67.6,0,71.8,0s6.3-2.1,6.3-6.3
				v-4.2H0.3z"/>
			<path id="Shape_11_" style="fill-rule:evenodd;clip-rule:evenodd;fill:#265697;" d="M59.2,15.7c-1.2-0.5-3-0.9-5.4-0.9c-5.9,0-10.1,3-10.1,7.4c0,3.2,3,5,5.2,6.1
				c2.3,1.1,3.1,1.8,3.1,2.8c0,1.5-1.9,2.2-3.6,2.2c-2.4,0-3.7-0.3-5.6-1.2l-0.8-0.4l-0.8,5c1.4,0.6,4,1.2,6.7,1.2
				c6.3,0,10.4-3,10.4-7.7c0-2.5-1.6-4.5-5-6.1c-2.1-1-3.4-1.7-3.4-2.8c0-0.9,1.1-1.9,3.4-1.9c2,0,3.4,0.4,4.5,0.9l0.5,0.3
				L59.2,15.7"/>
			<path id="Shape_10_" style="fill-rule:evenodd;clip-rule:evenodd;fill:#265697;" d="M74.5,15.2h-4.6c-1.4,0-2.5,0.4-3.1,1.9l-8.9,20.5h6.3c0,0,1-2.8,1.3-3.4c0.7,0,6.8,0,7.7,0
				c0.2,0.8,0.7,3.4,0.7,3.4h5.5L74.5,15.2L74.5,15.2z M67.2,29.6c0.5-1.3,2.4-6.3,2.4-6.3c0,0.1,0.5-1.3,0.8-2.1l0.4,1.9
				c0,0,1.1,5.3,1.4,6.5L67.2,29.6L67.2,29.6L67.2,29.6L67.2,29.6z"/>
			<path id="Shape_9_" style="fill-rule:evenodd;clip-rule:evenodd;fill:#265697;" d="M31.6,37.6l3.7-22.4h6l-3.7,22.4H31.6z"/>
			<path id="Shape_8_" style="fill-rule:evenodd;clip-rule:evenodd;fill:#265697;" d="M26.5,15.2l-5.9,15.3l-0.6-3.1c-1.1-3.6-4.5-7.5-8.3-9.4l5.3,19.6l6.3,0l9.4-22.4H26.5"/>
			<path id="Shape_7_" style="fill-rule:evenodd;clip-rule:evenodd;fill:#D97B16;" d="M15.3,15.2H5.6l-0.1,0.5C13.1,17.5,18,22,20.1,27.4L18,17.1C17.6,15.6,16.6,15.2,15.3,15.2"/>
		</g>
	</g>
	<g id="Page-1_4_">
		<g id="Master_1_" transform="translate(-1.000000, 0.000000)">
			<path id="Rectangle-1_5_" style="fill-rule:evenodd;clip-rule:evenodd;fill:#265697;" d="M174.4,0c-4.2,0-48.9,0-73.9,0c-2.1,0-4.2,2.1-4.2,4.2v42.2c0,4.2,2.1,6.3,6.3,6.3
				c23.6,0,67.6,0,71.8,0s6.3-2.1,6.3-6.3V6.3C180.8,2.1,178.7,0,174.4,0z"/>
			<path id="path2268_1_" style="fill-rule:evenodd;clip-rule:evenodd;fill:#DFAC16;" d="M175.3,26.7c0,12.3-9.8,22.2-22,22.2c-12.1,0-22-9.9-22-22.2v0c0-12.3,9.8-22.2,22-22.2
				C165.4,4.4,175.2,14.4,175.3,26.7L175.3,26.7C175.3,26.7,175.3,26.7,175.3,26.7L175.3,26.7L175.3,26.7z"/>
			<path id="path1350_1_" style="fill-rule:evenodd;clip-rule:evenodd;fill:#BF3126;" d="M123.7,4.4c-12.1,0.1-21.8,10-21.8,22.2c0,12.3,9.8,22.2,22,22.2c5.7,0,10.9-2.2,14.8-5.8
				c0,0,0,0,0,0h0c0.8-0.7,1.5-1.5,2.2-2.4h-4.5c-0.6-0.7-1.1-1.5-1.6-2.3h7.8c0.5-0.8,0.9-1.6,1.3-2.4h-10.3
				c-0.4-0.8-0.7-1.5-0.9-2.3h12.2c0.7-2.2,1.1-4.6,1.1-7c0-1.6-0.2-3.2-0.5-4.8h-13.4c0.2-0.8,0.4-1.6,0.6-2.3h12.2
				c-0.3-0.8-0.6-1.6-0.9-2.4h-10.3c0.4-0.8,0.8-1.6,1.3-2.3h7.8c-0.5-0.8-1.1-1.6-1.7-2.4h-4.3c0.7-0.8,1.4-1.5,2.2-2.2
				c-3.9-3.6-9.1-5.8-14.8-5.8C123.8,4.4,123.7,4.4,123.7,4.4C123.7,4.4,123.7,4.4,123.7,4.4L123.7,4.4L123.7,4.4z"/>
			<path id="path4157_1_" style="fill-rule:evenodd;clip-rule:evenodd;fill:#FFFFFF;" d="M131.7,32.3l0.3-2c-0.2,0-0.4,0.1-0.6,0.1c-0.8,0-0.9-0.4-0.9-0.8l0.7-4.1h1.2l0.3-2.2
				h-1.2l0.2-1.4h-2.3c-0.1,0.1-1.4,7.8-1.4,8.7c0,1.4,0.8,2,1.9,2C130.8,32.6,131.5,32.4,131.7,32.3
				C131.7,32.3,131.5,32.4,131.7,32.3L131.7,32.3L131.7,32.3z"/>
			<path id="path4155_1_" style="fill-rule:evenodd;clip-rule:evenodd;fill:#FFFFFF;" d="M132.4,28.5c0,3.3,2.2,4.1,4,4.1c1.7,0,2.5-0.4,2.5-0.4l0.4-2.3c0,0-1.3,0.6-2.5,0.6
				c-2.5,0-2.1-1.9-2.1-1.9h4.8c0,0,0.3-1.5,0.3-2.2c0-1.6-0.8-3.5-3.3-3.5C134.2,23,132.4,25.6,132.4,28.5
				C132.4,28.5,132.4,25.6,132.4,28.5L132.4,28.5L132.4,28.5z M136.5,25.1c1.3,0,1.1,1.5,1.1,1.6H135
				C135,26.6,135.3,25.1,136.5,25.1C136.5,25.1,135.3,25.1,136.5,25.1L136.5,25.1L136.5,25.1z"/>
			<path id="path4151_1_" style="fill-rule:evenodd;clip-rule:evenodd;fill:#FFFFFF;" d="M151.4,32.3l0.4-2.6c0,0-1.1,0.6-1.9,0.6c-1.7,0-2.3-1.3-2.3-2.7c0-2.8,1.4-4.3,3-4.3
				c1.2,0,2.1,0.7,2.1,0.7l0.4-2.5c0,0-1.4-0.6-2.6-0.6c-2.7,0-5.3,2.4-5.3,6.8c0,2.9,1.4,4.9,4.2,4.9
				C150.1,32.6,151.4,32.3,151.4,32.3L151.4,32.3L151.4,32.3L151.4,32.3z"/>
			<path id="path4149_3_" style="fill-rule:evenodd;clip-rule:evenodd;fill:#FFFFFF;" d="M118.8,23.1c-1.6,0-2.8,0.5-2.8,0.5l-0.3,2c0,0,1-0.4,2.5-0.4c0.9,0,1.5,0.1,1.5,0.8
				c0,0.4-0.1,0.6-0.1,0.6s-0.7-0.1-1-0.1c-2,0-4.1,0.9-4.1,3.5c0,2.1,1.4,2.5,2.3,2.5c1.7,0,2.4-1.1,2.4-1.1l-0.1,0.9h2.1l0.9-6.5
				C122,23.2,119.7,23.1,118.8,23.1L118.8,23.1L118.8,23.1L118.8,23.1z M119.3,28.4c0,0.4-0.2,2.3-1.7,2.3c-0.7,0-0.9-0.6-0.9-0.9
				c0-0.6,0.3-1.4,2.1-1.4C119.2,28.3,119.3,28.4,119.3,28.4C119.3,28.4,119.3,28.4,119.3,28.4L119.3,28.4L119.3,28.4z"/>
			<path id="path4145_1_" style="fill-rule:evenodd;clip-rule:evenodd;fill:#FFFFFF;" d="M124.2,32.6c0.5,0,3.5,0.1,3.5-3c0-2.9-2.8-2.4-2.8-3.5c0-0.6,0.5-0.8,1.3-0.8
				c0.3,0,1.6,0.1,1.6,0.1l0.3-2.1c0,0-0.8-0.2-2.2-0.2c-1.7,0-3.5,0.7-3.5,3.1c0,2.7,2.9,2.4,2.9,3.6c0,0.8-0.8,0.8-1.4,0.8
				c-1.1,0-2.1-0.4-2.1-0.4l-0.3,2.1C121.7,32.3,122.3,32.6,124.2,32.6C124.2,32.6,122.3,32.6,124.2,32.6L124.2,32.6L124.2,32.6z"/>
			<path id="path4139_1_" style="fill-rule:evenodd;clip-rule:evenodd;fill:#FFFFFF;" d="M170.7,21.2l-0.5,3.2c0,0-0.9-1.2-2.3-1.2c-2.1,0-3.9,2.6-3.9,5.6c0,1.9,1,3.8,2.9,3.8
				c1.4,0,2.2-1,2.2-1l-0.1,0.8h2.3l1.8-11.2L170.7,21.2L170.7,21.2L170.7,21.2L170.7,21.2z M169.7,27.4c0,1.2-0.6,2.9-1.9,2.9
				c-0.8,0-1.2-0.7-1.2-1.8c0-1.8,0.8-3,1.8-3C169.2,25.4,169.7,26,169.7,27.4C169.7,27.4,169.7,26,169.7,27.4L169.7,27.4
				L169.7,27.4z"/>
			<path id="path4133_1_" style="fill-rule:evenodd;clip-rule:evenodd;fill:#FFFFFF;" d="M106.2,32.4l1.4-8.5l0.2,8.5h1.6l3-8.5l-1.3,8.5h2.4l1.8-11.3h-3.7l-2.3,6.9l-0.1-6.9h-3.4
				l-1.9,11.3H106.2L106.2,32.4L106.2,32.4L106.2,32.4z"/>
			<path id="path4131_3_" style="fill-rule:evenodd;clip-rule:evenodd;fill:#FFFFFF;" d="M142.2,32.5c0.7-3.9,0.8-7.1,2.4-6.5c0.3-1.5,0.6-2.1,0.9-2.7c0,0-0.1,0-0.5,0
				c-1,0-1.8,1.4-1.8,1.4l0.2-1.3h-2.2l-1.5,9.2H142.2L142.2,32.5L142.2,32.5L142.2,32.5z"/>
			<path id="path4149_2_" style="fill-rule:evenodd;clip-rule:evenodd;fill:#FFFFFF;" d="M156.8,23.1c-1.6,0-2.8,0.5-2.8,0.5l-0.3,2c0,0,1-0.4,2.5-0.4c0.9,0,1.5,0.1,1.5,0.8
				c0,0.4-0.1,0.6-0.1,0.6s-0.7-0.1-1-0.1c-2,0-4.1,0.9-4.1,3.5c0,2.1,1.4,2.5,2.3,2.5c1.7,0,2.4-1.1,2.4-1.1l-0.1,0.9h2.1l0.9-6.5
				C160,23.2,157.6,23.1,156.8,23.1L156.8,23.1L156.8,23.1L156.8,23.1z M157.3,28.4c0,0.4-0.2,2.3-1.7,2.3c-0.7,0-0.9-0.6-0.9-0.9
				c0-0.6,0.3-1.4,2.1-1.4C157.2,28.3,157.2,28.4,157.3,28.4C157.3,28.4,157.2,28.4,157.3,28.4L157.3,28.4L157.3,28.4z"/>
			<path id="path4131_2_" style="fill-rule:evenodd;clip-rule:evenodd;fill:#FFFFFF;" d="M161.9,32.5c0.7-3.9,0.8-7.1,2.4-6.5c0.3-1.5,0.6-2.1,0.9-2.7c0,0-0.1,0-0.5,0
				c-1,0-1.8,1.4-1.8,1.4l0.2-1.3h-2.2l-1.5,9.2H161.9L161.9,32.5L161.9,32.5L161.9,32.5z"/>
		</g>
	</g>
	<g id="Page-1_3_">
		<g id="american-express_1_" transform="translate(-1.000000, 0.000000)">
			<path id="Rectangle-1_4_" style="fill-rule:evenodd;clip-rule:evenodd;fill:#306FC5;" d="M79.7,59.7c-4.2,0-48.9,0-73.9,0c-2.1,0-4.2,2.1-4.2,4.2v42.2c0,4.2,2.1,6.3,6.3,6.3
				c23.6,0,67.6,0,71.8,0s6.3-2.1,6.3-6.3V66C86,61.8,83.9,59.7,79.7,59.7z"/>
			<path id="Shape_6_" style="fill-rule:evenodd;clip-rule:evenodd;fill:#FFFFFF;" d="M8.7,79L7,75l-1.6,4H8.7z M44.7,77.4c-0.3,0.2-0.7,0.2-1.2,0.2h-2.9v-2.2h2.9
				c0.4,0,0.9,0,1.1,0.2c0.3,0.1,0.5,0.5,0.5,0.9C45.2,76.9,45,77.2,44.7,77.4C44.7,77.4,45,77.2,44.7,77.4L44.7,77.4L44.7,77.4z
				 M65.4,79l-1.7-4l-1.6,4H65.4L65.4,79L65.4,79L65.4,79z M26.8,83.3h-2.5l0-7.8l-3.5,7.8h-2.1l-3.5-7.8v7.8h-4.9l-0.9-2.2h-5
				l-0.9,2.2H1l4.3-10h3.6l4.1,9.5v-9.5h3.9l3.1,6.8l2.9-6.8h4L26.8,83.3L26.8,83.3L26.8,83.3L26.8,83.3z M36.6,83.3h-8v-10h8v2.1
				H31v1.8h5.5v2H31v2h5.6V83.3L36.6,83.3L36.6,83.3L36.6,83.3z M47.8,76c0,1.6-1.1,2.4-1.7,2.7c0.5,0.2,1,0.6,1.2,0.8
				c0.3,0.5,0.4,0.9,0.4,1.8v2h-2.4l0-1.3c0-0.6,0.1-1.5-0.4-1.9c-0.3-0.4-0.9-0.4-1.7-0.4h-2.6v3.6h-2.4v-10h5.5
				c1.2,0,2.1,0,2.9,0.5C47.4,74.2,47.8,74.9,47.8,76C47.8,76,47.8,74.9,47.8,76L47.8,76L47.8,76z M51.7,83.3h-2.4v-10h2.4V83.3
				L51.7,83.3L51.7,83.3L51.7,83.3z M79.9,83.3h-3.4L72,75.8v7.5h-4.9l-0.9-2.2h-5l-0.9,2.2h-2.8c-1.2,0-2.6-0.3-3.5-1.1
				c-0.8-0.8-1.3-2-1.3-3.8c0-1.5,0.3-2.8,1.3-3.9c0.8-0.8,2-1.2,3.6-1.2h2.3v2.1h-2.3c-0.9,0-1.4,0.1-1.8,0.6
				c-0.4,0.4-0.7,1.2-0.7,2.3c0,1.1,0.2,1.8,0.7,2.3c0.4,0.4,1,0.5,1.7,0.5h1.1l3.4-7.9h3.6l4,9.5v-9.5h3.6l4.2,7v-7h2.4V83.3
				L79.9,83.3L79.9,83.3L79.9,83.3z M1,85.3h4.1L6,83.1h2.1L9,85.3h8v-1.7l0.7,1.7h4.2l0.7-1.7v1.7h20l0-3.6H43c0.3,0,0.3,0,0.3,0.5
				v3.2h10.3v-0.8c0.8,0.4,2.1,0.8,3.8,0.8h4.3l0.9-2.2h2.1l0.9,2.2h8.4v-2.1l1.3,2.1h6.7V71.3h-6.6V73l-0.9-1.6h-6.8V73l-0.9-1.6
				h-9.2c-1.5,0-2.9,0.2-4,0.8v-0.8h-6.4v0.8c-0.7-0.6-1.6-0.8-2.7-0.8H21.4l-1.6,3.6l-1.6-3.6h-7.3V73l-0.8-1.6H3.9L1,78L1,85.3
				L1,85.3z M86,92.6h-4.4c-0.4,0-0.7,0-1,0.2c-0.3,0.2-0.3,0.4-0.3,0.7c0,0.4,0.2,0.6,0.5,0.7c0.3,0.1,0.5,0.1,0.9,0.1l1.3,0
				c1.3,0,2.2,0.3,2.7,0.8c0.1,0.1,0.2,0.2,0.2,0.2V92.6z M86,99.2c-0.6,0.8-1.7,1.3-3.2,1.3h-4.6v-2.1h4.6c0.5,0,0.8-0.1,1-0.2
				c0.2-0.2,0.3-0.4,0.3-0.7c0-0.3-0.1-0.5-0.3-0.7c-0.2-0.2-0.4-0.2-0.8-0.2c-2.2-0.1-5,0.1-5-3.1c0-1.5,0.9-3,3.4-3H86v-2h-4.4
				c-1.3,0-2.3,0.3-3,0.8v-0.8h-6.5c-1,0-2.3,0.3-2.9,0.8v-0.8H57.5v0.8c-0.9-0.7-2.5-0.8-3.2-0.8h-7.7v0.8
				c-0.7-0.7-2.4-0.8-3.4-0.8h-8.6l-2,2.1l-1.8-2.1H17.9v14h12.6l2-2.2l1.9,2.2l7.8,0v-3.3H43c1,0,2.3,0,3.3-0.5v3.8h6.4v-3.6h0.3
				c0.4,0,0.4,0,0.4,0.4v3.2h19.5c1.2,0,2.5-0.3,3.3-0.9v0.9h6.2c1.3,0,2.5-0.2,3.5-0.6V99.2L86,99.2L86,99.2L86,99.2z M76.5,95.2
				c0.5,0.5,0.7,1.1,0.7,2.1c0,2.2-1.3,3.2-3.8,3.2h-4.7v-2.1h4.6c0.5,0,0.8-0.1,1-0.2c0.2-0.2,0.3-0.4,0.3-0.7
				c0-0.3-0.1-0.5-0.3-0.7c-0.2-0.2-0.4-0.2-0.9-0.2c-2.2-0.1-5,0.1-5-3.1c0-1.5,0.9-3,3.4-3h4.8v2.1h-4.4c-0.4,0-0.7,0-1,0.2
				C71.1,93,71,93.2,71,93.5c0,0.4,0.2,0.6,0.5,0.7c0.3,0.1,0.5,0.1,0.9,0.1l1.3,0C75.1,94.5,75.9,94.7,76.5,95.2
				C76.5,95.2,75.9,94.7,76.5,95.2L76.5,95.2L76.5,95.2z M54.9,94.6c-0.3,0.2-0.7,0.2-1.2,0.2h-2.9v-2.2h2.9c0.4,0,0.9,0,1.1,0.2
				c0.3,0.2,0.5,0.5,0.5,0.9C55.4,94.1,55.2,94.4,54.9,94.6C54.9,94.6,55.2,94.4,54.9,94.6L54.9,94.6L54.9,94.6z M56.4,95.9
				c0.5,0.2,1,0.5,1.2,0.8c0.3,0.5,0.4,0.9,0.4,1.8v2h-2.4v-1.3c0-0.6,0.1-1.5-0.4-2c-0.3-0.4-0.9-0.4-1.8-0.4h-2.6v3.7h-2.4v-10
				h5.5c1.2,0,2.1,0.1,2.9,0.5c0.8,0.5,1.2,1.1,1.2,2.2C58.1,94.8,57,95.6,56.4,95.9C56.4,95.9,57,95.6,56.4,95.9L56.4,95.9
				L56.4,95.9z M59.4,90.5h8v2.1h-5.6v1.8h5.5v2h-5.5v2l5.6,0v2.1h-8V90.5L59.4,90.5L59.4,90.5L59.4,90.5z M43.3,95.1h-3.1v-2.5h3.1
				c0.9,0,1.5,0.4,1.5,1.2C44.7,94.7,44.2,95.1,43.3,95.1L43.3,95.1L43.3,95.1L43.3,95.1z M37.8,99.6l-3.7-4.1l3.7-3.9V99.6
				L37.8,99.6L37.8,99.6L37.8,99.6z M28.3,98.4h-5.9v-2h5.2v-2h-5.2v-1.8h6l2.6,2.9L28.3,98.4L28.3,98.4L28.3,98.4L28.3,98.4z
				 M47.3,93.8c0,2.8-2.1,3.4-4.2,3.4h-3v3.4h-4.6l-2.9-3.3l-3.1,3.3H20v-10h9.6l2.9,3.3l3-3.3h7.6C45.2,90.5,47.3,91,47.3,93.8
				C47.3,93.8,47.3,91,47.3,93.8L47.3,93.8L47.3,93.8z"/>
		</g>
	</g>
	<g id="Shape_1_1_">
		<g>
			<path style="fill:#434A54;" d="M173.3,59.7h-72.1c-3.4,0-6.2,2.8-6.2,6.2v5h84.5v-5C179.5,62.5,176.7,59.7,173.3,59.7z M95,106.2
				c0,3.4,2.8,6.2,6.2,6.2h72.1c3.4,0,6.2-2.8,6.2-6.2v-25H95V106.2z M157.8,89.6h12.3v3.9h-12.3V89.6z M104.5,89.6h27.3v3.9h-27.3
				V89.6z M104.5,97.8h14.8v3.9h-14.8V97.8z"/>
		</g>
	</g>
</g>
</svg>
