<!-- Generator: Adobe Illustrator 25.2.0, SVG Export Plug-In  -->
<svg version="1.1" xmlns="http://www.w3.org/2000/svg" xmlns:xlink="http://www.w3.org/1999/xlink" x="0px" y="0px" width="300px"
	 height="131px" viewBox="0 0 300 131" style="overflow:visible;enable-background:new 0 0 300 131;" xml:space="preserve">
<defs>
</defs>
<path style="fill:none;" d="M116.4,61.1c0.1,1,0.1,1.9,0.1,2.8c0-0.2,0-0.3,0-0.5c0-1.2,0-2.3-0.1-3.4C116.4,60.3,116.4,60.6,116.4,61.1z"
	/>
<path style="fill:none;" d="M9.9,59.9c0-0.5,0-1,0-1.3s0-0.5,0-1c0-0.2,0-0.4,0-0.6c0,0,0,0,0,0.1c0,0.3,0,0.5,0,1c0,0.5,0,1,0,1.3
	c0,0.5,0,1,0,1.6c0,0.8,0,1.6,0,2.3c0,0,0,0,0,0c0-0.6,0-1.2,0-1.8C9.9,61,9.9,60.5,9.9,59.9z"/>
<path style="fill:#ED1C24;" d="M195.4,56.8v-4.2c0-1-0.8-1.8-1.8-1.8h-52.4c-1,0-1.6,0.8-1.6,1.6v4.2c0,1,0.8,1.6,1.6,1.6h39.2v21.8
	c-1-1.6-2.3-3.1-3.6-4.7c-4.7-4.7-9.6-7-14.8-7c-4.2,0-7.5,2.1-10.4,5.7c-2.3,3.1-3.6,6.7-3.6,10.1c0,3.4,0.5,7.8,3.1,11.9
	c3.1,4.9,8.3,6.5,13,6.5c6,0,10.9-4.2,10.9-9.6c0-3.1-1.6-5.7-4.4-7.5l-2.9-1.6v3.4c0,0.3,0,0.5,0,0.8s0,0.5,0,0.5
	c-0.3,1.3-2.3,3.1-4.7,3.1c-2.1,0-3.9-0.8-5.2-2.1c-0.8-0.8-1.3-2.3-1-3.4c0-1.6,0.5-2.9,1.6-4.2c1.3-1.6,2.6-2.3,4.7-2.3
	c5.2,0,9.6,2.3,13.2,7.5c2.9,4.4,4.4,8.6,4.4,13.2v10.9l7.8,4.7c0.3,0.3,0.5,0.3,0.8,0.3c1,0,1.6-0.8,1.6-1.6V58.4h3.1
	C194.9,58.4,195.4,57.6,195.4,56.8z"/>
<path style="fill:#ED1C24;" d="M298.4,50.9h-46.7h-6.2H232c-1,0-1.6,0.8-1.6,1.6v7.3c-6.5-6.7-12.2-10.1-17.4-10.1c-4.9,0-9.1,1-12.7,3.9
	c-3.4,2.6-5.4,6-5.4,9.9c0,11.7,13,11.4,16.3,9.9c0.5-0.3,1.3-0.8,2.1-0.8c2.6,0,3.6,2.1,3.6,3.9c0,2.6-3.9,4.9-8.6,4.9
	c-2.6,0-4.2-0.8-5.2-2.3l-2.1-3.1l-1.3,3.6c-0.3,0.8-0.8,1.8-0.8,3.1c0,2.6,1.3,5.2,3.9,7.5c2.3,2.1,5.2,3.1,8.3,3.1
	c4.9,0,9.1-1.8,11.7-5.4c2.3-2.9,3.4-6.2,3.4-10.1c0-2.1-0.8-4.4-2.6-7c-2.1-3.1-4.7-4.7-7.5-4.7c-1,0-2.3,0.3-3.6,0.8
	c-0.5,0.3-1.6,0.5-1.8,0.5c-0.5,0-1.3-0.3-1.8-1c-0.5-0.5-1-1.3-1-2.6c0-2.9,2.6-5.7,7.3-5.7h0.3c3.1,0,6.2,1.6,9.1,4.4
	c2.3,2.3,4.2,4.7,5.7,7.3v41.3l7.8,4.7c0.3,0.3,0.5,0.3,0.8,0.3c1,0,1.6-0.8,1.6-1.6V58.4h4.9h6.2h0.8v36.1l9.3,3.9
	c0.3,0,0.5,0,0.5,0c0.8,0,1.6-0.5,1.6-1.6v-0.3c1.6-10.6,6.2-17.9,14-22.3c0,0.5,0,1.3,0,2.1c0,1.6,0,5.4,0.3,7.5
	c0,1.3,0,2.1,0.3,2.9c0,4.2,0.5,10.4,1.8,15c2.6,8.8,7,10.9,10.1,10.9h0.3c1.8,0,3.4-0.5,4.4-1.6c0.5-0.5,1.3-1.6,1.3-3.4
	c0-1.6-0.3-2.9-0.8-3.9l-0.8-1.3l-1.6,0.3c-1.6,0.5-2.3,0.5-2.3,0.3h-0.3c-0.5,0-0.5,0-0.8-0.3c-0.5-0.3-1.6-1-2.3-3.9
	c-0.5-2.1-0.8-4.9-0.8-6.5c0-11.7,2.3-20.5,6.2-22.3h0.3c0.5-0.3,1-0.8,1-1.6c0-0.3,0-0.5-0.3-0.8v-0.3c-1.8-3.6-5.7-6.2-10.9-7.5
	h-0.5h-0.5c-4.2,0.8-9.1,3.6-15.3,8.8c-1.6,1.3-3.1,2.6-4.4,3.9V58.4h36.3c1,0,1.6-0.8,1.6-1.6v-4.2
	C300.2,51.6,299.4,50.9,298.4,50.9z"/>
<path style="fill:#ED1C24;" d="M28.8,105.1c5.3,4.4,11.5,7.7,18.1,9.6c-6.4-2.1-12.3-5.3-17.3-9.6C17.6,95.2,9.9,80.4,9.9,63.8
	c0-0.2,0-0.3,0-0.5c0,0,0,0,0,0c0-0.8,0-1.6,0-2.3c0-0.5,0-1,0-1.6c0-0.3,0-0.8,0-1.3c0-0.5,0-0.8,0-1c0,0,0,0,0-0.1
	c0-0.2,0.1-0.4,0.2-0.7c0-0.2,0-0.3,0-0.6c0.3-1.6,0.5-3.1,0.8-4.7c0-0.1,0-0.2,0-0.2c-1,4.2-1.6,8.5-1.6,12.9
	C9.3,79.9,16.3,94.7,28.8,105.1z"/>
<path style="fill:#ED1C24;" d="M17.6,35.3c-0.3,0.4-0.5,0.9-0.8,1.3C17,36.1,17.3,35.7,17.6,35.3z"/>
<path style="fill:#ED1C24;" d="M11.9,47.5c0.3-0.8,0.5-1.3,0.8-2.1c0-0.3,0.3-0.5,0.3-0.8c0.3-0.3,0.3-0.8,0.5-1.3c0.3-0.3,0.3-0.8,0.5-1
	c0.8-1.9,1.7-3.8,2.7-5.6c-2.2,3.7-3.9,7.7-5.2,11.9C11.7,48.3,11.7,47.9,11.9,47.5z"/>
<path style="fill:#ED1C24;" d="M121.2,56.8c-0.8,1.3-1.6,2.3-2.3,3.6c-0.8-0.8-1.6-1.3-2.3-2.1l-0.3-0.3c0.1,0.4,0.1,0.8,0.1,1.2l0.1,0.1
	c0,0.2-0.1,0.3-0.1,0.5c0.1,1.1,0.1,2.2,0.1,3.4c0,0.2,0,0.4,0,0.5c0,0.5,0,0.9,0,1.3c0,0.2,0,0.3,0,0.5c0,0.6,0,1.2,0,1.7
	c0,0.2,0,0.5,0,0.7c0,0.3,0,0.6-0.1,0.9c-0.7,9.4-4.3,16.8-4.8,17.7c-0.5,1-1,1.8-1.6,2.9c-3.9,7-9.1,13-15.6,17.6
	c-1,0.7-1.9,1.3-2.9,1.9c-8.6,5.6-18.6,8.4-29,8.4c-12.5,0-24.4-4.4-34-12.2C16.1,95.2,8.8,79.9,8.8,63.8s7.3-31.4,19.7-41.5
	l0.5-0.5c0,0.3-0.3,0.3-0.3,0.5s-0.3,0.3-0.3,0.5c-1.8,1.5-3.4,3.1-5,4.7c0,0,0,0,0,0c0,0,0.3-0.3,0.5-0.5c1-0.8,1.8-1.8,2.9-2.6
	c0.8-0.8,1.6-1.3,2.3-2.1c0-0.3,0.3-0.3,0.3-0.5c1.3-2.3,2.9-4.4,4.4-6.5C14,25.2,0,45.9,0,70.1c0,24.4,14.5,45.7,35.3,55.3
	c7.8,3.6,16.6,5.7,25.9,5.7c21.8,0,41-11.4,51.9-28.5c1.6-2.3,2.9-4.7,3.9-7.3c2.9-6.2,4.7-13,5.2-20.2c0.3-1.6,0.3-3.1,0.3-4.9
	c0-1.8,0-3.6-0.3-6C122,61.5,121.7,59.2,121.2,56.8z"/>
<path style="fill:#ED1C24;" d="M22.8,28.4c-0.1,0.1-0.2,0.3-0.4,0.4C22.5,28.7,22.7,28.6,22.8,28.4z"/>
<path style="fill:#F7941D;" d="M34.3,79.7c-0.5-2.9-0.5-5.7-0.5-8.8C34,48.3,48.3,29.1,68.5,21L57.1,0C38.1,8.6,25.2,27.5,25.2,49.6
	C25.2,60.7,28.5,71.1,34.3,79.7z"/>
<path style="fill:#ED1C24;" d="M46.7,43.9c-2.9,4.9-4.9,10.6-5.7,16.6c1.6-3.1,3.4-6,5.4-8.6C54,42,64.9,34.5,77.6,31.4
	c4.7-1.3,9.9-1.8,14.8-1.8c3.1,0,6.5,0.3,9.3,0.8l-0.3-9.3l-0.5-18.7c-2.1-0.3-4.4-0.5-6.7-0.5c-10.4,0-20,3.4-27.8,8.8l6.2,11.4
	C61.5,25.9,52.4,33.7,46.7,43.9z"/>
<path style="fill:#F7941D;" d="M105.3,34c-4.4-1.3-8.8-2.1-13.8-2.1c-9.1,0-17.6,2.6-25.2,7c-9.3,5.7-16.6,14.8-20.2,25.4
	c3.6-4.9,8-9.3,13.2-12.7c7.5-4.9,16.6-7.8,26.2-7.8c7.3,0,14,1.6,20.2,4.4c4.7,2.1,8.8,4.9,12.5,8.6l7.3-10.9l9.3-14.3
	c-8.3-6.7-18.7-10.9-30.1-10.9L105.3,34z"/>
<path style="fill:#F7941D;" d="M9.9,57.6c0,0.5,0,0.8,0,1s0,0.8,0,1.3c0,0.5,0,1,0,1.6c0,0.6,0,1.2,0,1.8c0,16.6,7.5,31.7,19.7,41.3
	c9.3,7.5,21,12.2,33.7,12.2c5.7,0,11.2-0.9,16.3-2.5c5-1.7,9.7-4.1,14-7.3c6.5-4.7,11.7-10.6,15.6-17.6c0.5-1,1-1.8,1.3-2.9
	c0,0,5.2-9.6,5.2-21c0-0.5,0-1.3,0-1.8c0-1.7,0-3.3-0.2-5c-5.8-4.4-12.3-7.8-19.5-9.6c-3.9-1-8-1.8-12.2-1.8
	c6,5.4,9.6,13.5,9.9,22.3c0,0.3,0,0.5,0,0.8c0,14.8-10.1,27.5-23.9,31.1c-2.9,0.5-5.7,1-8.6,1c-0.5,0-1.3,0-1.8,0h-0.3
	c-20.2,0-36.6-22.6-36.6-50.6c0-2.3,0-4.4,0.3-6.5c0.8-7.8,2.9-15.3,6-21.5c0,0,0.3-0.3,0.3-0.5s0.3-0.3,0.3-0.5
	c-0.8,0.8-1.6,1.3-2.3,2.1c-1,0.8-2.1,1.6-2.9,2.6c-0.3,0-0.3,0.3-0.5,0.5c-0.3,0-0.3,0.3-0.5,0.5c-0.5,0.3-0.8,0.8-1,1
	c-0.5,0.8-1.3,1.6-1.8,2.3c-2.3,3.4-4.7,7-6.2,10.9c-0.3,0.3-0.3,0.8-0.5,1s-0.3,0.8-0.5,1.3c0,0.3-0.3,0.5-0.3,0.8
	c-0.3,0.5-0.5,1.3-0.8,2.1c-0.3,0.3-0.3,0.8-0.5,1.3c0,0.3-0.3,0.5-0.3,0.8c0,0.5-0.3,1-0.3,1.6c-0.3,1.6-0.5,3.1-0.8,4.7
	c0,0,0,0,0,0.1c0,0.2-0.1,0.4-0.2,0.7C9.9,57.2,9.9,57.4,9.9,57.6z"/>
<path style="fill:#F7941D;" d="M116.4,59.9c0-0.2,0-0.4,0-0.6l-0.1-0.1c-0.1,0-0.1-0.1-0.2-0.1c0.2,0.7,0.3,1.4,0.3,2
	C116.4,60.6,116.4,60.3,116.4,59.9z"/>
<path style="fill:#F7941D;" d="M79.7,114.2c-5.1,1.7-10.6,2.5-16.3,2.5c-12.7,0-24.4-4.7-33.7-12.2C17.4,95,9.9,79.9,9.9,63.3
	c0,0.2,0,0.3,0,0.5c0,16.6,7.8,31.4,19.7,41.3c5,4.3,10.9,7.6,17.3,9.6c5.1,1.5,10.3,2.3,15.6,2.3C68.4,117,74.2,116.1,79.7,114.2z"
	/>
<path style="fill:#F7941D;" d="M116.5,67.4c0,0.2,0,0.5,0,0.7C116.4,67.9,116.4,67.6,116.5,67.4z"/>
<path style="fill:#F7941D;" d="M116.5,59.4l-0.1-0.1c0,0.2,0,0.4,0,0.6C116.4,59.7,116.5,59.6,116.5,59.4z"/>
<path style="fill:#F7941D;" d="M109.8,89.8c-3.9,7-9.3,13-15.8,17.6c-0.8,0.6-1.6,1.1-2.4,1.7c1-0.6,2-1.3,2.9-1.9
	c6.5-4.7,11.7-10.6,15.6-17.6c0.5-1,1-1.8,1.6-2.9c0.5-0.9,4-8.3,4.8-17.7c-0.8,9.9-5,18-5,18C110.8,88,110.3,88.7,109.8,89.8z"/>
<path style="fill:#F7941D;" d="M10.1,56.4C10,56.6,9.9,56.8,9.9,57C10,56.8,10.1,56.6,10.1,56.4z"/>
<path style="fill:#F7941D;" d="M116,58.6l-0.3-0.3l-0.3-0.3v0.3c0,0.1,0,0.1,0,0.2c0.2,0.1,0.4,0.3,0.6,0.4C116,58.9,116,58.8,116,58.6z"/>
<path style="fill:#F7941D;" d="M20.2,31.4c-1,1.2-1.8,2.5-2.6,3.9c1.4-2.3,3-4.4,4.8-6.4c-0.1,0.1-0.2,0.2-0.3,0.2
	C21.5,29.8,20.8,30.6,20.2,31.4z"/>
<path style="fill:#F7941D;" d="M16.8,36.6c0,0.1-0.1,0.1-0.1,0.2C16.7,36.7,16.8,36.6,16.8,36.6z"/>
<path style="fill:#F7941D;" d="M22.8,28.4c0.3-0.3,0.5-0.6,0.8-0.9c-0.2,0.2-0.5,0.5-0.5,0.5C23,28.1,22.9,28.3,22.8,28.4z"/>
<path style="fill:#F7941D;" d="M116.5,63.8c0-0.9,0-1.8-0.1-2.8C116.4,61.9,116.5,62.9,116.5,63.8z"/>
<path style="fill:#F7941D;" d="M11.2,49.6c0,0.4-0.2,0.9-0.2,1.3c0.2-0.8,0.4-1.5,0.6-2.3c0,0.1-0.1,0.1-0.1,0.2C11.4,49,11.2,49.3,11.2,49.6z
	"/>
<path style="fill:#F7941D;" d="M28.5,22.8c0-0.3,0.3-0.3,0.3-0.5s0.3-0.3,0.3-0.5l-0.5,0.5C16.1,32.4,8.8,47.7,8.8,63.8s7.3,31.4,19.7,41.5
	c9.6,7.8,21.5,12.2,34,12.2c10.4,0,20.4-2.8,29-8.4c-8.2,5.1-17.8,8.2-28.2,8.2c-5.7,0-11.2-0.9-16.4-2.6c-6.6-2-12.8-5.2-18.1-9.6
	C16.3,94.7,9.3,79.9,9.3,63.8c0-4.4,0.6-8.8,1.6-12.9c0.1-0.4,0.2-0.9,0.2-1.3c0-0.3,0.3-0.5,0.3-0.8c0,0,0.1-0.1,0.1-0.2
	c1.2-4.2,3-8.2,5.2-11.9c0-0.1,0.1-0.1,0.1-0.2c0.3-0.4,0.5-0.9,0.8-1.3c0.8-1.3,1.7-2.6,2.6-3.9c0.5-0.8,1.3-1.6,1.8-2.3
	c0.1-0.1,0.2-0.1,0.3-0.2c0.1-0.1,0.2-0.3,0.4-0.4c0.1-0.2,0.2-0.3,0.3-0.4c0,0,0.2-0.2,0.5-0.5C25.1,25.9,26.8,24.3,28.5,22.8z"/>
<path style="fill:#F7941D;" d="M116.5,65.6c0,0.6,0,1.2,0,1.7C116.5,66.8,116.5,66.2,116.5,65.6z"/>
<path style="fill:#F7941D;" d="M116.4,68.1c0,0.3,0,0.6-0.1,0.9C116.4,68.7,116.4,68.4,116.4,68.1z"/>
<path style="fill:#F7941D;" d="M115.7,65.4c0,11.4-5.2,21-5.2,21c-0.3,1-0.8,1.8-1.3,2.9c-3.9,7-9.1,13-15.6,17.6c-4.3,3.2-9,5.6-14,7.3
	c5.3-1.7,10.3-4.3,14.8-7.6C100.9,102,106.1,96,110,89c0.5-1,1-1.8,1.6-2.9c3.1-6.5,4.9-13.5,4.9-21c0-0.4,0-0.8,0-1.3
	c0-0.9-0.1-1.9-0.1-2.8c-0.1-0.6-0.2-1.3-0.3-2c-0.2-0.1-0.4-0.3-0.6-0.4c0.2,1.7,0.2,3.2,0.2,5C115.7,64.1,115.7,64.9,115.7,65.4z"
	/>
<path style="fill:#F7941D;" d="M110,89c-3.9,7-9.1,13-15.6,17.6c-4.5,3.3-9.5,5.9-14.8,7.6c-5.5,1.9-11.3,2.8-17.1,2.8
	c-5.3,0-10.6-0.8-15.6-2.3c5.2,1.7,10.7,2.6,16.4,2.6c10.4,0,20-3.1,28.2-8.2c0.8-0.5,1.6-1.1,2.4-1.7c6.5-4.7,11.9-10.6,15.8-17.6
	c0.5-1,1-1.8,1.6-2.9c0,0,4.2-8,5-18c0-0.3,0-0.6,0.1-0.9c0-0.2,0-0.5,0-0.7c0-0.6,0-1.2,0-1.7c0-0.2,0-0.4,0-0.5
	c0,7.5-1.8,14.5-4.9,21C111.1,87.2,110.5,88,110,89z"/>
</svg>
