<!-- Generator: Adobe Illustrator 25.2.0, SVG Export Plug-In  -->
<svg version="1.1" xmlns="http://www.w3.org/2000/svg" xmlns:xlink="http://www.w3.org/1999/xlink" x="0px" y="0px" width="349.3px"
	 height="160.1px" viewBox="0 0 349.3 160.1" style="overflow:visible;enable-background:new 0 0 349.3 160.1;"
	 xml:space="preserve">
<style type="text/css">
	.st0{fill:none;}
	.st1{fill-rule:evenodd;clip-rule:evenodd;fill:#8C3794;}
	.st2{fill-rule:evenodd;clip-rule:evenodd;fill:#FFFFFF;}
	.st3{fill:#FFFFFF;}
</style>
<defs>
</defs>
<rect class="st0" width="349.3" height="160.1"/>
<g id="surface1_1_">
	<path class="st1" d="M71.8,155.2h214V4.9h-214V155.2z"/>
	<path class="st2" d="M220.9,29.3L195.5,56l1.8,15l4.7-10.3l14.5,19.4l20.3-65.5l-67.5,29.5l18.3,10.1L220.9,29.3"/>
	<path class="st3" d="M189,104.2c0,0-13.8,0-14.9,0c-9.2,0.6-12.3-15.4-0.9-17.5c3.3,0,15.8,0,15.8,0V104.2z M198.8,76.1
		c0,0-21.5,0-26.7,0c-20.4,3.3-22.5,34.4-0.2,38.6h27V86.6c9,0.3,10.8,12.1,4.2,16.4c1.3,1.6,6.7,7.7,6.7,7.7
		C223.8,98,215.8,77.1,198.8,76.1"/>
	<path class="st2" d="M254.8,90.1c-4.5,0-9.8,0-9.8,0l-4.2,10.3c0,0,11.4,0,12.5,0c2.5-0.1,2.6,3.7,0,4c-3.2,0-21.6,0-21.6,0V86.6
		h33.2V76.1c0,0-4.6,0-4.9,0c-1.5-21.7-26.2-22.4-32.8-10.5c1.3,1.1,7.4,6.8,7.4,6.8c3.7-6.1,14.1-5.8,15.6,3.7h-28.3v38.6h31.9
		c7.2-0.1,10.6-5.7,11.4-10.5C265.5,96.4,261,91.3,254.8,90.1"/>
	<path class="st2" d="M159.4,76.1h-12.9c-4.1,5.3-11.3,26.5,2.9,42.6c0,0,6.1-5.5,7.4-6.5C152.3,107.7,145.1,89.5,159.4,76.1"/>
	<path class="st2" d="M126.5,119c0,4.7-3.6,8.5-8.1,8.5c-4.5,0-8.1-3.8-8.1-8.5s3.6-8.5,8.1-8.5C122.8,110.5,126.5,114.3,126.5,119"
		/>
	<path class="st2" d="M126.2,104.2c0,0-13.8,0-14.9,0c-9.2,0.6-12.3-15.4-0.9-17.5c3.3,0,15.8,0,15.8,0V104.2z M109.2,76.1
		c-20.4,3.3-22.5,34.4-0.2,38.6h0.1c1.6-3.7,5.1-6.3,9.2-6.3c4.1,0,7.6,2.6,9.2,6.3h8.4c0-1.3,0-38.6,0-38.6S114.5,76.1,109.2,76.1"
		/>
	<path class="st2" d="M118.4,62.2c0,0.5-0.4,0.9-0.8,0.9h-4.3v-1.9h4.3C118,61.3,118.4,61.7,118.4,62.2L118.4,62.2z M118.8,67
		c3.3-0.6,4.9-7.7-0.4-9.2c-0.6,0-8.7,0-8.7,0v13.4h3.6V67l4,4.2h5.6L118.8,67"/>
	<path class="st2" d="M129,67.3c-1.6,0-2.9-1.3-2.9-3c0-1.7,1.3-3,2.9-3c1.6,0,2.9,1.3,2.9,3C131.9,66,130.6,67.3,129,67.3z
		 M129,57.5c-3.6,0-6.5,3.1-6.5,6.8c0,3.8,2.9,6.8,6.5,6.8s6.5-3.1,6.5-6.8C135.5,60.6,132.6,57.5,129,57.5"/>
	<path class="st2" d="M165.9,61.4h5.8v-4h-4.9c-3.9,0-7.1,3.1-7.1,6.8c0,3.8,3.2,6.8,7.1,6.8h4.9v-4h-5.8c-0.9,0-1.6-0.4-2.1-1.1
		h7.9v-3.6h-7.9C164.2,61.8,165,61.4,165.9,61.4"/>
	<path class="st2" d="M142.7,67.2c-1.5,0-2.7-1.3-2.7-2.8v-0.2c0-1.5,1.2-2.8,2.7-2.8h5.5v-4h-5c-3.9,0-7.1,3.1-7.1,6.8
		c0,3.8,3.2,6.8,7.1,6.8h5v-4H142.7"/>
	<path class="st2" d="M185.3,57.7h-12.6v3.5h4.6v9.7h3.4v-9.7h4.6V57.7"/>
	<path class="st3" d="M155.3,64.3l6.2-6.5h-5l-3.5,3.7v-3.7h-3.4v13.2h3.4v-3.8l3.6,3.8h5L155.3,64.3"/>
	<path class="st3" d="M206,121.2c-0.6,0.1-1,0.5-1.5,1.1c-0.4,0.6-0.6,1.2-0.6,1.8c0,0.4,0.1,0.7,0.2,1.1c0.2,0.4,0.4,0.6,0.7,0.6
		c0.2,0,0.4-0.1,0.6-0.3l0.3,1c-0.3,0.2-0.6,0.3-0.9,0.3c-0.4,0-0.8-0.2-1.2-0.5c-0.2-0.2-0.4-0.5-0.6-1.1c-0.1-0.3-0.1-0.6-0.1-1.1
		v-0.4c0-0.8,0.4-1.7,1.2-2.7c0.2-0.2,0.5-0.5,0.9-0.9h1.3v1C206.2,121.2,206.1,121.2,206,121.2"/>
	<path class="st3" d="M210.5,121.2h-2.5c0.7,0.5,1.1,1.1,1.1,1.9c0.4,0.2,0.9,0.6,1.4,1.1V121.2z M211.6,121.2v5.6h-1.1V126
		c0-0.2-0.2-0.6-0.5-0.9c-0.3-0.3-0.6-0.5-0.9-0.8c-0.3-0.2-0.7-0.4-1.1-0.4c-0.4,0-0.7,0.2-0.9,0.5c0,0,0,0.1,0,0.2
		c0,0.1,0.1,0.3,0.2,0.4c0.1,0.1,0.3,0.2,0.4,0.2c0.1,0,0.4-0.1,0.8-0.3l0.3,1c-0.5,0.3-0.9,0.4-1.2,0.4c-0.4,0-0.7-0.1-1-0.3
		c-0.3-0.2-0.5-0.5-0.6-0.8c-0.1-0.1-0.1-0.3-0.1-0.5c0-0.6,0.2-1.1,0.7-1.4c0.3-0.2,0.7-0.4,1.1-0.4c0,0,0.1,0,0.1,0
		c0-0.2-0.1-0.4-0.3-0.7c-0.2-0.2-0.4-0.4-0.6-0.4H206v-0.7h-0.5v-1h6.8v1H211.6"/>
	<path class="st3" d="M213.7,121.2v5.6h-1.1v-5.6h-0.8v-1h2.5v1H213.7"/>
	<path class="st3" d="M218.8,122.4c-0.2,0.1-0.4,0.1-0.6,0.2c-0.3,0.2-0.9,0.4-1.8,0.8l-0.2,0.1c0.8,0.3,1.6,0.8,2.4,1.4
		c0.1,0.1,0.2,0.1,0.2,0.2V122.4z M218.8,121.2H214v-1h6.6v1h-0.7v5.6h-0.9c-0.1-0.3-0.5-0.7-1.4-1.3c-0.3-0.2-0.8-0.5-1.4-0.7
		c-0.6-0.2-1.1-0.4-1.5-0.4l-0.3-1.1c0.2-0.2,0.9-0.6,2-1.1C216.9,121.9,217.7,121.6,218.8,121.2"/>
	<path class="st3" d="M221.9,121.2v5.6h-1.1v-5.6h-0.8v-1h2.5v1H221.9"/>
	<path class="st3" d="M225.9,127.7c-0.4-0.4-0.9-0.8-1.4-1.1c-0.2-0.2-0.6-0.4-1.2-0.6c-0.4-0.2-0.7-0.2-0.8-0.2l0-1.3
		c0.1,0,0.2,0,0.4,0s0.3,0,0.4,0c0.5,0,0.9-0.1,1.2-0.2c0.6-0.3,0.9-0.5,0.9-0.9c0-0.3-0.1-0.5-0.3-0.6c-0.2-0.1-0.4-0.3-0.6-0.4
		c-0.1,0-0.1,0-0.2,0c-0.1,0-0.3,0-0.4,0.1c-0.2,0.1-0.3,0.2-0.3,0.3c0,0.3,0.3,0.4,0.9,0.4L224,124c-0.2,0-0.5-0.1-0.7-0.2
		c-0.4-0.3-0.7-0.7-0.7-1.1s0.2-0.8,0.7-1c0.4-0.2,0.8-0.3,1.2-0.3c0.2,0,0.4,0,0.5,0.1c0.1,0.1,0.3,0.1,0.4,0.2
		c0.7,0.4,1.1,1,1.1,1.7c0,0.6-0.2,1-0.7,1.4c-0.3,0.3-0.8,0.4-1.5,0.6c0.2,0.1,0.5,0.2,0.8,0.5c0.6,0.5,1.1,0.9,1.5,1.3
		L225.9,127.7z M222.3,121.2v-1h3.1c0,0,0-0.1,0-0.1c0-0.5-0.2-0.8-0.7-1c-0.1,0-0.1,0-0.2,0c-0.1,0-0.2,0-0.4,0.1
		c-0.2,0.1-0.4,0.1-0.4,0.1c-0.2,0-0.3,0.1-0.5,0.2c-0.2,0.1-0.4,0.2-0.6,0.3l-0.3-0.8c0.4-0.3,0.9-0.5,1.6-0.8
		c0.3-0.1,0.5-0.1,0.8-0.1c0.3,0,0.6,0.1,0.9,0.3c0.6,0.4,0.9,1,0.9,1.8h0.6v1H222.3"/>
	<path class="st3" d="M233.4,121.2v5.6h-1.1v-2.2c0-0.2-0.1-0.4-0.2-0.6c-0.2-0.2-0.3-0.3-0.5-0.3c-0.2,0-0.3,0.1-0.5,0.3
		c-0.2,0.2-0.2,0.5-0.2,0.7h-1.1c0-0.3-0.1-0.6-0.2-0.8c-0.2-0.2-0.3-0.3-0.5-0.3c-0.2,0-0.3,0.1-0.5,0.2c-0.2,0.1-0.2,0.3-0.2,0.4
		l0,0.3v0.1c0,0.6,0.3,0.9,1,0.9c0.1,0,0.3,0,0.5-0.1l-0.4,1.1c-0.2,0-0.3,0-0.4,0c-0.5,0-1-0.2-1.4-0.6c-0.2-0.1-0.3-0.4-0.4-0.7
		c-0.1-0.3-0.1-0.5-0.1-0.8c0-0.6,0.2-1.1,0.5-1.5c0.4-0.4,0.8-0.6,1.4-0.6c0.5,0,1,0.3,1.3,0.8c0.4-0.5,0.8-0.8,1.3-0.8
		c0.2,0,0.5,0.1,0.7,0.4v-1.6h-5.7v-1h7.4v1H233.4"/>
	<path class="st3" d="M241.4,122.4c-0.2,0.1-0.4,0.1-0.6,0.2c-0.3,0.2-0.9,0.4-1.8,0.8l-0.2,0.1c0.8,0.3,1.6,0.8,2.4,1.4
		c0.1,0.1,0.2,0.1,0.2,0.2V122.4z M241.3,121.2h-4.8v-1h6.6v1h-0.7v5.6h-0.9c-0.1-0.3-0.5-0.7-1.4-1.3c-0.3-0.2-0.8-0.5-1.4-0.7
		c-0.6-0.2-1.1-0.4-1.5-0.4l-0.3-1.1c0.2-0.2,0.9-0.6,2-1.1C239.4,121.9,240.2,121.6,241.3,121.2"/>
	<path class="st3" d="M244.9,121.2c-0.3,0.5-0.5,0.9-0.5,1.2c0,0.1,0.2,0.7,0.5,1.8c0.2,0.5,0.3,0.9,0.3,1.3c0,0.6-0.3,1.1-1,1.4
		c-0.2,0.1-0.6,0.2-1.1,0.2l0.1-1c0.6-0.1,0.9-0.4,0.9-0.7c0-0.3-0.1-0.8-0.4-1.4c-0.3-0.6-0.4-1.1-0.4-1.4c0-0.4,0.2-0.8,0.5-1.4
		h-1.1v-1h3v1H244.9"/>
	<path class="st3" d="M247.2,121.2v5.6h-1.1v-5.6h-0.8v-1h2.5v1H247.2"/>
	<path class="st3" d="M249.9,121.6c-0.1-0.1-0.2-0.1-0.3-0.1c-0.4,0.1-0.6,0.3-0.6,0.6c0,0.2,0.1,0.3,0.2,0.5
		c0.1,0.1,0.3,0.2,0.4,0.2l0.1,0c0.3-0.1,0.5-0.3,0.5-0.6C250.2,121.9,250.1,121.7,249.9,121.6z M250.8,127.4
		c-1.3-1.2-2.3-1.9-2.7-2.1l0-1.5c1.8,1.4,3.1,2.5,3.6,3.3v1.1L250.8,127.4z M249.6,123.8c-0.5,0-0.9-0.2-1.2-0.5
		c-0.3-0.3-0.4-0.7-0.4-1.3c0-0.5,0.2-0.9,0.5-1.2c0.3-0.3,0.7-0.5,1.1-0.5c0.6,0,1.1,0.3,1.3,1c0.1,0.3,0.2,0.6,0.2,0.8
		c0,0.5-0.1,0.9-0.4,1.2C250.5,123.7,250.1,123.8,249.6,123.8"/>
	<path class="st3" d="M258.3,119.6c-1.2-0.8-2.2-1.2-3-1.2c-0.9,0-1.6,0.3-2,0.9c-0.2,0.2-0.2,0.5-0.2,0.9h0.7v1H253v5.6H252v-5.6
		h-0.7v-1h0.7c0-0.8,0.3-1.4,0.7-1.9c0.5-0.5,1.1-0.8,1.9-0.9c0.1,0,0.2,0,0.5-0.1h0.2c0.6,0,1.3,0.1,1.9,0.4c0.3,0.2,0.9,0.5,1.7,1
		L258.3,119.6"/>
	<path class="st3" d="M256.4,122.5c-0.2,0.1-0.4,0.3-0.8,0.6c-0.1,0-0.2,0.1-0.3,0.2c-0.1,0.1-0.2,0.2-0.3,0.3
		c0.1,0.1,0.3,0.3,0.5,0.4c0.2,0.3,0.5,0.6,0.9,1V122.5z M257.5,121.2L257.5,121.2c0.4,0.1,0.9,0.2,1.4,0.5c0.7,0.4,1,0.9,1,1.6
		c0,0.4-0.1,0.7-0.3,1c-0.2,0.3-0.5,0.5-0.9,0.6c-0.4,0.1-0.7,0.1-0.9,0v-1.1c0.1,0,0.2,0,0.3,0c0.5,0,0.8-0.2,0.8-0.6
		c0-0.5-0.5-0.8-1.4-0.9v4.4h-0.9c-0.2-0.3-0.3-0.5-0.5-0.7c-0.1-0.1-0.2-0.2-0.4-0.6c-0.1-0.1-0.2-0.2-0.4-0.4
		c-0.2-0.2-0.3-0.3-0.4-0.4c0,0-0.1-0.1-0.2-0.2c-0.5-0.2-0.8-0.3-1.1-0.3l-0.3-1.1c0.2-0.2,0.8-0.5,1.6-1c0.1,0,0.3-0.2,0.7-0.5
		c0.2-0.1,0.4-0.3,0.8-0.5v-0.1h-3.3v-1h7.3v1H257.5"/>
	<path class="st3" d="M262.1,121.6c-0.1-0.1-0.2-0.1-0.3-0.1c-0.4,0.1-0.6,0.3-0.6,0.6c0,0.2,0.1,0.3,0.2,0.5
		c0.1,0.1,0.3,0.2,0.4,0.2l0.1,0c0.3-0.1,0.5-0.3,0.5-0.6C262.5,121.9,262.4,121.7,262.1,121.6z M263.1,127.4
		c-1.3-1.2-2.3-1.9-2.7-2.1l0-1.5c1.8,1.4,3.1,2.5,3.6,3.3v1.1L263.1,127.4z M261.9,123.8c-0.5,0-0.9-0.2-1.2-0.5
		c-0.3-0.3-0.5-0.7-0.5-1.3c0-0.5,0.2-0.9,0.5-1.2c0.3-0.3,0.7-0.5,1.1-0.5c0.6,0,1.1,0.3,1.4,1c0.1,0.3,0.2,0.6,0.2,0.8
		c0,0.5-0.1,0.9-0.4,1.2C262.8,123.7,262.4,123.8,261.9,123.8"/>
	<path class="st3" d="M144.9,127.2l2,0.7l0.8-0.7l-2-0.7L144.9,127.2"/>
	<path class="st3" d="M143.8,124.1c0.2,0.1,0.5-0.3,0.7-0.6c0,0.3,0,0.8,0,1.3c0,0.5-0.4,0.9-0.7,0.9c-0.3,0-2.8,0-2.8,0v-1.7
		C141.1,124.1,143.6,124.1,143.8,124.1z M145.6,121.5v-1.3h-15.5v1.3h2.6v2.8c0,0,2,0,2.2,0c0,0,0.6-0.2,0.8-0.6c0,0.4,0,1,0,1.1
		c0,0.5-0.4,0.9-0.8,0.9c-0.4,0-3.1,0-3.3,0c-0.2,0-0.4-0.1-0.4-0.9c0-0.8,0-2.6,0-2.6h-1.2c0,0,0,3.1,0,3.3c0,0.3,0.2,1.3,1,1.3
		c0.8,0,4.3,0,4.5,0c0.7,0,1.2-0.8,1.2-1.4c0-1.3,0-3.2,0-3.2h-1.1c-0.1,0.5,0,0.8-0.5,1c-0.5,0-1.3,0-1.3,0v-1.7h3.8v5.3h1.3v-5.3
		h0.9v5.3c0,0,4,0,4.3,0c0.3,0,1.3-0.3,1.3-1.4c0-1.2,0-3.2,0-3.2h-1.1c0,0.3,0,0.8-0.5,0.8c-0.5,0-2.9,0-2.9,0v-1.5H145.6"/>
	<path class="st3" d="M147,124.5h2.6V123H147V124.5z"/>
	<path class="st3" d="M155.4,125.9c0,0-2.5,0-2.6,0c-0.4-0.1-0.7-0.5-0.7-1.1c0-0.6,0-1.5,0-1.5h3.3V125.9z M151.1,120.2v1.3h4.3
		v0.7h-4.3c0,0,0,2.8,0,3c0.1,1,0.6,1.6,1.5,1.6c1.1,0,3.9,0,3.9,0v-5.3h0.9v5.3h1.2v-6.6H151.1"/>
	<path class="st3" d="M164.2,121.5h5.4v0.7c-0.2,0-1.4,0-1.6,0c-0.1,0.5-0.9,0.8-1.1,0c-0.9,0-2.7,0-2.7,0s0,2.9,0,3.2
		c0,0.3,0,1.3,0.8,1.4c0.7,0,2.2,0,2.2,0v-1.1c0,0-1.2,0-1.4,0c-0.3-0.1-0.5-0.3-0.5-0.7c0-0.6,0-1.7,0-1.7h1.4v0.9h1.3v-0.7
		c-0.1-0.3,1.4-0.3,1.4,0c0,0.5,0,3.3,0,3.3h1.2v-5.3h0.8v5.3h1.2v-6.6h-8.4V121.5"/>
	<path class="st3" d="M161.5,122.4c-0.5,0-0.9-0.2-0.9-0.4c0-0.2,0.4-0.4,0.9-0.4s0.9,0.2,0.9,0.4
		C162.4,122.2,162,122.4,161.5,122.4z M162.4,120.6c-0.5,0-2.8,0-2.8,0s0,1.5,0,1.7c0.1,0.6,0.4,1.2,1.3,1.3c1,0,2.2,0,2.2,0v-2.1
		C163.1,121.1,162.9,120.7,162.4,120.6"/>
	<path class="st3" d="M159.8,124.3v1.1l3.4,1.5v-1.2L159.8,124.3"/>
	<path class="st3" d="M189.9,122.4c-0.5,0-0.9-0.2-0.9-0.4c0-0.2,0.4-0.4,0.9-0.4s0.9,0.2,0.9,0.4
		C190.8,122.2,190.4,122.4,189.9,122.4z M190.7,120.6c-0.5,0-2.8,0-2.8,0s0,1.5,0,1.7c0.1,0.6,0.4,1.2,1.3,1.3c1,0,2.2,0,2.2,0v-2.1
		C191.4,121.1,191.2,120.7,190.7,120.6"/>
	<path class="st3" d="M188.1,124.3v1.1l3.4,1.5v-1.2L188.1,124.3"/>
	<path class="st3" d="M196.8,125.9c0,0-2.5,0-2.6,0c-0.4-0.1-0.7-0.5-0.7-1.1c0-0.6,0-1.5,0-1.5h3.3l0,0.2h0V125.9z M197.9,122.2
		v-0.7h2.2v-1.3h-7.6v1.3h4.3v0.7h-4.3c0,0,0,2.8,0,3c0.1,1,0.6,1.6,1.5,1.6c1.1,0,3.9,0,3.9,0v-3.3h1.1c0.2,0,0.2-0.1,0.3,0.2
		c0,0.3,0,0.6,0,0.6c-0.1,0.3-0.1,0.5-0.3,0.6c-0.2,0-0.4,0-0.4,0v1.1h0.8c0.3,0,0.7-0.3,0.8-0.7c0-0.6,0-3,0-3H197.9"/>
	<path class="st3" d="M180.5,125.9c0,0-2.5,0-2.6,0c-0.4-0.1-0.7-0.5-0.7-1.1c0-0.6,0-1.5,0-1.5h3.3V125.9z M176.2,120.2v1.3h4.3
		v0.7h-4.3c0,0,0,2.8,0,3c0.1,1,0.6,1.6,1.5,1.6c1.1,0,3.9,0,3.9,0v-5.3h1.4l-0.5,1v0.7c0,0,0.7,0,0.9,0c0.5,0.1,0.7,0.4,0.7,1.3
		c0,0.6-0.1,1.1-0.6,1.1c-0.3,0-0.9,0-0.9,0v1.1c0,0,0.7,0,0.9,0s1.5,0.1,1.6-1.1c0.1-2.5,0.2-3.1-1.4-3.3l0.2-0.9h1.9v5.3h1.2v-6.6
		H176.2"/>
</g>
</svg>
