<svg className="w-8 h-8" fill="currentColor" viewBox="0 0 263 125" version="1.1" xmlns="http://www.w3.org/2000/svg" xmlns:xlink="http://www.w3.org/1999/xlink">
          
                      <g id="Page-1" stroke="none" stroke-width="1" fill="none" fill-rule="evenodd">
                          <g id="Profile-Photo" transform="translate(-67.000000, -117.000000)">
                              <path d="M154.333333,130.8 C109.355556,130.8 81.2444444,153.244444 70,198.133333 C86.8666667,175.688889 106.544444,167.272222 129.033333,172.883333 C141.864493,176.084784 151.035588,185.374914 161.186823,195.658833 C177.723652,212.411117 196.862946,231.8 238.666667,231.8 C283.644444,231.8 311.755556,209.355556 323,164.466667 C306.133333,186.911111 286.455556,195.327778 263.966667,189.716667 C251.135507,186.515216 241.964412,177.225086 231.813177,166.941167 C215.276348,150.188883 196.137054,130.8 154.333333,130.8 Z" id="Path" fill="#494949"></path>
                              <path d="M151.333333,140.8 C106.355556,140.8 78.2444444,163.244444 67,208.133333 C83.8666667,185.688889 103.544444,177.272222 126.033333,182.883333 C138.864493,186.084784 148.035588,195.374914 158.186823,205.658833 C174.723652,222.411117 193.862946,241.8 235.666667,241.8 C280.644444,241.8 308.755556,219.355556 320,174.466667 C303.133333,196.911111 283.455556,205.327778 260.966667,199.716667 C248.135507,196.515216 238.964412,187.225086 228.813177,176.941167 C212.276348,160.188883 193.137054,140.8 151.333333,140.8 Z" id="Path-Copy-2" fill="#494949"></path>
                              <path d="M159.666667,120.8 C116.111111,120.8 88.8888888,142.577778 78,186.133333 C94.3333333,164.355556 113.388889,156.188889 135.166667,161.633333 C147.592098,164.739691 156.473198,173.753876 166.303445,183.732333 C182.317371,199.987025 200.851469,218.8 241.333333,218.8 C284.888888,218.8 312.111112,197.022222 323,153.466667 C306.666667,175.244444 287.611112,183.411111 265.833333,177.966667 C253.407902,174.860309 244.526802,165.846124 234.696555,155.867667 C218.682629,139.612975 200.148531,120.8 159.666667,120.8 Z" id="Path-Copy" stroke="#494949" stroke-width="6" fill="#FFFFFF"></path>
                          </g>
                      </g>
                  </svg>